<svg width="16" height="16" viewBox="0 0 16 16" fill="none" xmlns="http://www.w3.org/2000/svg">
<g id="add-circle">
<path id="Vector" opacity="0.2" d="M0.833252 8.00004C0.833252 11.9581 4.04188 15.1667 7.99992 15.1667C11.958 15.1667 15.1666 11.9581 15.1666 8.00004C15.1666 4.042 11.958 0.833374 7.99992 0.833374C4.04188 0.833374 0.833252 4.042 0.833252 8.00004Z" fill="#FFB13B"/>
<path id="Vector_2" fill-rule="evenodd" clip-rule="evenodd" d="M8.00008 4.66663C8.36828 4.66663 8.66675 4.96511 8.66675 5.33329V7.33329H10.6667C11.0349 7.33329 11.3334 7.63176 11.3334 7.99996C11.3334 8.36816 11.0349 8.66663 10.6667 8.66663H8.66675V10.6666C8.66675 11.0348 8.36828 11.3333 8.00008 11.3333C7.63188 11.3333 7.33341 11.0348 7.33341 10.6666V8.66663H5.33341C4.96523 8.66663 4.66675 8.36816 4.66675 7.99996C4.66675 7.63176 4.96523 7.33329 5.33341 7.33329H7.33341V5.33329C7.33341 4.96511 7.63188 4.66663 8.00008 4.66663Z" fill="#FFB13B"/>
</g>
</svg>
