<svg width="12" height="12" viewBox="0 0 12 12" fill="none" xmlns="http://www.w3.org/2000/svg">
<g id="checkmark-circle-checked">
<path id="Vector" fill-rule="evenodd" clip-rule="evenodd" d="M5.875 11.25C2.90647 11.25 0.5 8.84355 0.5 5.875C0.5 2.90647 2.90647 0.5 5.875 0.5C8.84355 0.5 11.25 2.90647 11.25 5.875C11.25 8.84355 8.84355 11.25 5.875 11.25ZM8.09505 4.82414C8.34305 4.70268 8.4456 4.40317 8.32415 4.15518C8.20265 3.90718 7.90315 3.80461 7.65515 3.92608C6.67725 4.40505 5.9201 5.22695 5.4186 5.8969C5.2448 6.12905 5.0981 6.34785 4.98013 6.5355C4.84056 6.4146 4.70292 6.31445 4.58158 6.23445C4.44281 6.14295 4.31968 6.07405 4.22982 6.0274C4.18476 6.004 4.14769 5.98595 4.12077 5.9733C4.10729 5.967 4.09633 5.962 4.08813 5.9583L4.07793 5.9538L4.07444 5.9523L4.07311 5.9517L4.07206 5.95125C4.07194 5.9512 4.07206 5.95125 3.8751 6.41085L4.07206 5.95125C3.81825 5.8425 3.5243 5.96005 3.41553 6.21385C3.30696 6.4672 3.42405 6.76055 3.67685 6.86985L3.67737 6.87005L3.67915 6.87085C3.68215 6.8722 3.68774 6.87475 3.69565 6.87845C3.7115 6.8859 3.73655 6.89805 3.76883 6.9148C3.83366 6.9485 3.92614 7.0001 4.03112 7.06935C4.24552 7.2107 4.48978 7.41085 4.66548 7.66185C4.76694 7.8068 4.93745 7.8873 5.11385 7.8736C5.29015 7.8599 5.4462 7.7539 5.5241 7.5951L5.5254 7.59255L5.53265 7.57815C5.5395 7.56475 5.55025 7.54395 5.56485 7.5166C5.5941 7.46175 5.6386 7.3807 5.6977 7.28C5.81615 7.0782 5.9919 6.7997 6.2191 6.4962C6.6801 5.88045 7.32295 5.2023 8.09505 4.82414Z" fill="black"/>
</g>
</svg>
