<svg width="16" height="16" viewBox="0 0 16 16" fill="none" xmlns="http://www.w3.org/2000/svg">
<g id="delete-02">
<path id="Vector" fill-rule="evenodd" clip-rule="evenodd" d="M13.055 10.4377C13.0039 11.2731 12.9633 11.9361 12.8801 12.4657C12.7948 13.0088 12.6583 13.4611 12.3851 13.8567C12.1353 14.2186 11.8136 14.5241 11.4405 14.7536C11.0327 15.0045 10.5774 15.1143 10.0354 15.1667L5.95159 15.1667C5.409 15.1141 4.95315 15.0041 4.54507 14.7527C4.17175 14.5228 3.84996 14.2168 3.60019 13.8543C3.32715 13.458 3.19104 13.0051 3.10638 12.4612C3.02383 11.9309 2.98415 11.2669 2.93415 10.4303L2.5 3.16675H13.5L13.055 10.4377ZM6.33333 11.974C6.05719 11.974 5.83333 11.7502 5.83333 11.474V7.47402C5.83333 7.19788 6.05719 6.97402 6.33333 6.97402C6.60947 6.97402 6.83333 7.19788 6.83333 7.47402V11.474C6.83333 11.7502 6.60947 11.974 6.33333 11.974ZM10.1667 7.47402C10.1667 7.19788 9.9428 6.97402 9.66667 6.97402C9.39053 6.97402 9.16667 7.19788 9.16667 7.47402V11.474C9.16667 11.7502 9.39053 11.974 9.66667 11.974C9.9428 11.974 10.1667 11.7502 10.1667 11.474V7.47402Z" fill="#969696"/>
<path id="Vector_2" fill-rule="evenodd" clip-rule="evenodd" d="M8.89812 0.855219C9.27485 0.888912 9.62892 1.00388 9.93298 1.23065C10.1579 1.39836 10.3141 1.60365 10.4475 1.82599C10.5712 2.03203 10.6957 2.28891 10.8369 2.58031L11.1215 3.16717H13.9999C14.3681 3.16717 14.6666 3.46565 14.6666 3.83384C14.6666 4.20203 14.3681 4.50051 13.9999 4.50051C9.99978 4.50051 6.00004 4.50051 1.99992 4.50051C1.63173 4.50051 1.33325 4.20203 1.33325 3.83384C1.33325 3.46565 1.63173 3.16717 1.99992 3.16717H4.93976L5.17696 2.64681C5.31467 2.34468 5.43594 2.07859 5.55776 1.86507C5.68916 1.63475 5.84473 1.42162 6.07233 1.24701C6.38013 1.01088 6.74132 0.891166 7.12652 0.856099C7.41652 0.829699 7.70885 0.833332 7.99992 0.833799C8.34045 0.834346 8.64658 0.832719 8.89812 0.855219ZM6.40509 3.16717H9.63972C9.48858 2.85558 9.39192 2.65809 9.30432 2.51217C9.17612 2.29862 9.02252 2.20501 8.77932 2.18325C8.60645 2.16779 8.38118 2.16717 8.02292 2.16717C7.65572 2.16717 7.42458 2.16781 7.24738 2.18394C6.99798 2.20665 6.84252 2.30383 6.71585 2.52581C6.63286 2.67129 6.5425 2.86602 6.40509 3.16717Z" fill="#969696"/>
</g>
</svg>
