<svg width="40" height="40" viewBox="0 0 40 40" fill="none" xmlns="http://www.w3.org/2000/svg">
<g id="icon">
<path id="svgbar" d="M6.2521 17.4104C5.73991 16.8982 5.08734 16.5493 4.3769 16.408C3.66647 16.2667 2.93008 16.3392 2.26087 16.6164C1.59165 16.8936 1.01966 17.363 0.617229 17.9653C0.214798 18.5676 0 19.2757 0 20C0 20.7244 0.214798 21.4325 0.617229 22.0347C1.01966 22.637 1.59165 23.1064 2.26087 23.3836C2.93008 23.6608 3.66647 23.7333 4.3769 23.592C5.08734 23.4507 5.73991 23.1019 6.2521 22.5897H33.7479C34.2601 23.1019 34.9127 23.4507 35.6231 23.592C36.3335 23.7333 37.0699 23.6608 37.7391 23.3836C38.4084 23.1064 38.9803 22.637 39.3828 22.0347C39.7852 21.4325 40 20.7244 40 20C40 19.2757 39.7852 18.5676 39.3828 17.9653C38.9803 17.363 38.4084 16.8936 37.7391 16.6164C37.0699 16.3392 36.3335 16.2667 35.6231 16.408C34.9127 16.5493 34.2601 16.8982 33.7479 17.4104H6.2521Z" fill="#FFB13B"/>
<path id="svgbar_2" d="M12.1101 8.44749C12.1101 7.72314 11.8953 7.01505 11.4929 6.41277C11.0905 5.81049 10.5185 5.34106 9.8493 5.06386C9.18009 4.78666 8.44371 4.71413 7.73327 4.85544C7.02284 4.99675 6.37026 5.34556 5.85806 5.85776C5.34587 6.36995 4.99706 7.02253 4.85575 7.73296C4.71444 8.4434 4.78697 9.17978 5.06417 9.849C5.34137 10.5182 5.8108 11.0902 6.41308 11.4926C7.01536 11.895 7.72345 12.1098 8.4478 12.1098L27.8903 31.5523C27.8903 32.2766 28.1051 32.9847 28.5075 33.587C28.9099 34.1893 29.4819 34.6587 30.1511 34.9359C30.8203 35.2131 31.5567 35.2857 32.2671 35.1443C32.9776 35.003 33.6301 34.6542 34.1423 34.142C34.6545 33.6298 35.0033 32.9773 35.1447 32.2668C35.286 31.5564 35.2134 30.82 34.9362 30.1508C34.659 29.4816 34.1896 28.9096 33.5873 28.5072C32.985 28.1047 32.277 27.89 31.5526 27.89L12.1101 8.44749Z" fill="#FFB13B"/>
<path id="svgbar_3" d="M22.5899 6.2521C23.1021 5.73991 23.4509 5.08734 23.5922 4.3769C23.7335 3.66647 23.661 2.93008 23.3838 2.26087C23.1066 1.59165 22.6372 1.01966 22.0349 0.617229C21.4327 0.214798 20.7246 0 20.0002 0C19.2759 0 18.5678 0.214798 17.9655 0.617229C17.3632 1.01966 16.8938 1.59165 16.6166 2.26087C16.3394 2.93008 16.2669 3.66647 16.4082 4.3769C16.5496 5.08734 16.8984 5.73991 17.4106 6.2521V33.7479C16.8984 34.2601 16.5496 34.9127 16.4082 35.6231C16.2669 36.3335 16.3394 37.0699 16.6166 37.7391C16.8938 38.4084 17.3632 38.9803 17.9655 39.3828C18.5678 39.7852 19.2759 40 20.0002 40C20.7246 40 21.4327 39.7852 22.0349 39.3828C22.6372 38.9803 23.1066 38.4084 23.3838 37.7391C23.661 37.0699 23.7335 36.3335 23.5922 35.6231C23.4509 34.9127 23.1021 34.2601 22.5899 33.7479L22.5899 6.2521Z" fill="#FFB13B"/>
<path id="svgbar_4" d="M31.552 12.1099C32.2764 12.1099 32.9845 11.8951 33.5867 11.4927C34.189 11.0903 34.6584 10.5183 34.9356 9.84906C35.2129 9.17985 35.2854 8.44346 35.1441 7.73303C35.0028 7.02259 34.654 6.37002 34.1418 5.85782C33.6296 5.34563 32.977 4.99682 32.2665 4.85551C31.5561 4.71419 30.8197 4.78673 30.1505 5.06393C29.4813 5.34113 28.9093 5.81055 28.5069 6.41283C28.1045 7.01512 27.8897 7.7232 27.8897 8.44756L8.44722 27.89C7.72287 27.89 7.01478 28.1048 6.4125 28.5072C5.81022 28.9097 5.34079 29.4816 5.06359 30.1509C4.78639 30.8201 4.71386 31.5564 4.85517 32.2669C4.99648 32.9773 5.34529 33.6299 5.85749 34.1421C6.36968 34.6543 7.02226 35.0031 7.73269 35.1444C8.44313 35.2857 9.17951 35.2132 9.84872 34.936C10.5179 34.6588 11.0899 34.1894 11.4923 33.5871C11.8948 32.9848 12.1096 32.2767 12.1095 31.5524L31.552 12.1099Z" fill="#FFB13B"/>
</g>
</svg>
