<svg width="16" height="16" viewBox="0 0 16 16" fill="none" xmlns="http://www.w3.org/2000/svg">
<g id="pencil-edit-02">
<path id="Vector" fill-rule="evenodd" clip-rule="evenodd" d="M7.95187 1.5H8C8.359 1.5 8.65 1.79101 8.65 2.15C8.65 2.50899 8.359 2.8 8 2.8C6.60277 2.8 5.62023 2.80138 4.87709 2.90129C4.15265 2.99869 3.75379 3.17887 3.46633 3.46633C3.17887 3.75379 2.99869 4.15265 2.90129 4.87709C2.80138 5.62023 2.8 6.60277 2.8 8C2.8 9.39727 2.80138 10.3798 2.90129 11.1229C2.99869 11.8473 3.17887 12.2462 3.46633 12.5337C3.75379 12.8211 4.15265 13.0013 4.87709 13.0987C5.62023 13.1986 6.60277 13.2 8 13.2C9.39727 13.2 10.3798 13.1986 11.1229 13.0987C11.8473 13.0013 12.2462 12.8211 12.5337 12.5337C12.8211 12.2462 13.0013 11.8473 13.0987 11.1229C13.1986 10.3798 13.2 9.39727 13.2 8C13.2 7.641 13.491 7.35 13.85 7.35C14.209 7.35 14.5 7.641 14.5 8V8.04813C14.5 9.38613 14.5 10.4563 14.3871 11.2961C14.2703 12.1647 14.0221 12.8837 13.4529 13.4529C12.8837 14.0221 12.1647 14.2703 11.2961 14.3871C10.4563 14.5 9.38613 14.5 8.04813 14.5H7.95187C6.61389 14.5 5.54372 14.5 4.70387 14.3871C3.83527 14.2703 3.11635 14.0221 2.54709 13.4529C1.97784 12.8837 1.72967 12.1647 1.61289 11.2961C1.49997 10.4563 1.49999 9.38613 1.5 8.04813V7.95187C1.49999 6.61387 1.49997 5.54372 1.61289 4.70387C1.72967 3.83527 1.97784 3.11635 2.54709 2.54709C3.11635 1.97784 3.83527 1.72967 4.70387 1.61289C5.54372 1.49997 6.61387 1.49999 7.95187 1.5Z" fill="#969696"/>
<path id="Vector_2" fill-rule="evenodd" clip-rule="evenodd" d="M13.9664 2.03354C13.2551 1.32215 12.1017 1.32215 11.3903 2.03354L10.8089 2.61492L13.385 5.1911L13.9664 4.60966C14.6778 3.89828 14.6778 2.74491 13.9664 2.03354ZM12.6779 5.8982L10.1018 3.32202L6.91292 6.51092C6.2672 7.15652 5.87248 7.55107 5.60103 8.03687C5.44962 8.3078 5.31735 8.7188 5.20032 9.13934C5.07992 9.572 4.96139 10.0698 4.84824 10.545L4.84686 10.5509C4.80664 10.7197 4.85693 10.8975 4.97971 11.0202C5.10248 11.143 5.28016 11.1933 5.44907 11.1531L5.45486 11.1517C5.93008 11.0385 6.4279 10.92 6.86058 10.7996C7.28112 10.6826 7.69212 10.5503 7.96312 10.3989C8.44885 10.1275 8.84345 9.7328 9.48905 9.08707L12.6779 5.8982Z" fill="#969696"/>
</g>
</svg>
